HIERARCHY
ROOT Hips
{
	OFFSET 0.00 0.00 0.00
	CHANNELS 6 Xposition Yposition Zposition Xrotation Yrotation Zrotation
	JOINT Spine
	{
		OFFSET 0.00000 4.88528 0.00000
		CHANNELS 3 Xrotation Yrotation Zrotation
		JOINT Head
		{
			OFFSET 0.00000 16.49416 0.00000
			CHANNELS 3 Xrotation Yrotation Zrotation
			End Site
			{
				OFFSET 0.00000 4.52755 0.00000
			}
		}
		JOINT LeftShoulder
		{
			OFFSET 0.00000 10.66345 0.00000
			CHANNELS 3 Xrotation Yrotation Zrotation
			JOINT LeftArm
			{
				OFFSET 7.53191 0.00000 0.00000
				CHANNELS 3 Xrotation Yrotation Zrotation
				JOINT LeftForeArm
				{
					OFFSET 10.22920 0.00000 0.00000
					CHANNELS 3 Yrotation Zrotation Xrotation
					JOINT LeftHand
					{
						OFFSET 8.67349 0.00000 0.00000
						CHANNELS 3 Xrotation Yrotation Zrotation
						JOINT LeftHandThumb1
						{
							OFFSET 0.00000 0.00000 0.00000
							CHANNELS 3 Xrotation Zrotation Yrotation
							End Site
							{
								OFFSET 0.00000 0.00000 3.93700
							}
						}
						End Site
						{
							OFFSET 3.93700 0.00000 0.00000
						}
					}
				}
			}
		}
		JOINT RightShoulder
		{
			OFFSET 0.00000 10.66345 0.00000
			CHANNELS 3 Xrotation Yrotation Zrotation
			JOINT RightArm
			{
				OFFSET -7.53191 0.00000 0.00000
				CHANNELS 3 Xrotation Yrotation Zrotation
				JOINT RightForeArm
				{
					OFFSET -10.22920 0.00000 0.00000
					CHANNELS 3 Yrotation Zrotation Xrotation
					JOINT RightHand
					{
						OFFSET -8.67349 0.00000 0.00000
						CHANNELS 3 Xrotation Yrotation Zrotation
						JOINT RightHandThumb1
						{
							OFFSET 0.00000 0.00000 0.00000
							CHANNELS 3 Xrotation Zrotation Yrotation
							End Site
							{
								OFFSET 0.00000 0.00000 3.93700
							}
						}
						End Site
						{
							OFFSET -3.93700 0.00000 0.00000
						}
					}
				}
			}
		}
	}
	JOINT LeftUpLeg
	{
		OFFSET 2.67219 0.00000 0.00000
		CHANNELS 3 Xrotation Yrotation Zrotation
		JOINT LeftLeg
		{
			OFFSET 0.00000 -16.26339 0.00000
			CHANNELS 3 Xrotation Yrotation Zrotation
			JOINT LeftFoot
			{
				OFFSET 0.00000 -14.32816 0.00000
				CHANNELS 3 Xrotation Yrotation Zrotation
				JOINT LeftToeBase
				{
					OFFSET 0.00000 -1.30219 4.85985
					CHANNELS 3 Xrotation Yrotation Zrotation
					End Site
					{
						OFFSET 0.00000 0.00000 2.95275
					}
				}
			}
		}
	}
	JOINT RightUpLeg
	{
		OFFSET -2.67219 0.00000 0.00000
		CHANNELS 3 Xrotation Yrotation Zrotation
		JOINT RightLeg
		{
			OFFSET 0.00000 -16.26339 0.00000
			CHANNELS 3 Xrotation Yrotation Zrotation
			JOINT RightFoot
			{
				OFFSET 0.00000 -14.32816 0.00000
				CHANNELS 3 Xrotation Yrotation Zrotation
				JOINT RightToeBase
				{
					OFFSET 0.00000 -1.30219 4.85985
					CHANNELS 3 Xrotation Yrotation Zrotation
					End Site
					{
						OFFSET 0.00000 0.00000 2.95275
					}
				}
			}
		}
	}
}
MOTION
Frames: 20
Frame Time: 0.008333
 1.4917 34.3395 -4.5694 -5.4606 -26.7055 -47.0182 -10.0852 23.3501 31.1467 10.3705 0.4284 21.3464 9.5808 30.8319 35.3706 -87.6172 -17.1953 -12.3596 -16.0188 -0.0000 15.5449 1.6029 -7.0524 12.8397 33.1476 -0.0000 26.2537 -31.6335 7.8938 -27.8874 -85.1369 -37.2877 14.0026 59.1203 0.0000 -43.8605 -0.5906 1.0541 29.2629 32.8623 0.0000 -24.3270 -0.9282 -4.0392 40.2916 22.8776 -0.0000 -0.0000 -13.2462 37.8397 -1.6862 -11.5552 -0.0000 0.0000 -115.8319 19.3663 -55.0012 -11.0965 -0.0000 0.0000 44.7242 -15.7877 21.3656 11.4877 0.0000 0.0000
 1.4921 34.3356 -4.5552 -5.4949 -26.6359 -46.9473 -10.0340 23.2938 31.0453 10.5781 0.4758 21.3371 9.6511 30.8342 35.3676 -87.4839 -17.2030 -12.3892 -15.5911 -0.0000 15.4671 1.5670 -6.9154 12.8005 33.1476 -0.0000 26.2537 -31.6931 7.9097 -27.8930 -85.0890 -37.3431 14.0451 59.1717 0.0000 -43.8629 -0.5917 1.0504 29.3968 32.8623 0.0000 -24.3270 -0.9181 -3.9744 40.2314 22.9308 -0.0000 0.0000 -13.3275 37.7072 -2.0345 -11.4810 0.0000 -0.0000 -115.8464 19.4104 -55.0276 -11.1875 -0.0000 0.0000 44.7317 -15.8051 21.5958 11.7723 -0.0000 0.0000
 1.4936 34.3276 -4.5433 -5.5234 -26.5788 -46.8692 -9.9908 23.2469 30.9415 10.7700 0.5247 21.3074 9.6226 30.7818 35.3684 -87.2876 -17.3188 -12.3852 -15.1563 0.0000 15.3562 1.5166 -6.9584 12.3279 33.1476 -0.0000 26.2537 -31.7394 7.9300 -27.8917 -84.9998 -37.3789 14.0996 59.2318 0.0000 -43.9420 -0.5678 1.0067 29.4283 32.8623 0.0000 -24.3270 -0.8908 -3.9242 40.1507 22.9518 0.0000 0.0000 -13.4023 37.5840 -2.2286 -11.8561 0.0000 -0.0000 -115.8601 19.4826 -55.0445 -11.2376 -0.0000 0.0000 44.6608 -15.7352 21.5255 11.6832 0.0000 0.0000
 1.4956 34.3178 -4.5346 -5.5427 -26.5377 -46.8340 -9.9894 23.2038 30.9096 10.9460 0.5569 21.2381 9.6788 30.7730 35.3283 -87.1787 -17.4625 -12.3665 -14.7169 0.0000 15.1921 1.4636 -6.9189 11.9746 33.1476 -0.0000 26.2537 -31.7384 7.9586 -27.9044 -84.9602 -37.4030 14.1217 59.3008 0.0000 -44.0133 -0.5650 0.9993 29.4865 32.8623 0.0000 -24.3270 -0.9072 -3.8334 40.1165 22.9452 -0.0000 0.0000 -13.5237 37.4706 -2.2378 -11.8059 -0.0000 0.0000 -115.8604 19.5027 -55.0709 -11.3354 -0.0000 0.0000 44.6834 -15.7438 21.5748 11.6666 -0.0000 -0.0000
 1.4991 34.3061 -4.5274 -5.5578 -26.4834 -46.7971 -9.9694 23.1356 30.8773 11.1564 0.6194 21.1204 9.7074 30.7681 35.3102 -87.0807 -17.5978 -12.3628 -14.3341 0.0000 15.0010 1.4597 -6.9671 11.8636 33.1476 -0.0000 26.2537 -31.6897 7.9988 -27.9051 -84.9142 -37.4066 14.1460 59.3670 0.0000 -44.1815 -0.5377 0.9462 29.6109 32.8623 0.0000 -24.3270 -0.9430 -3.7464 40.0866 22.9621 -0.0000 0.0000 -13.6373 37.3265 -2.3155 -11.8346 -0.0000 0.0000 -115.8937 19.5003 -55.0839 -11.4322 0.0000 -0.0000 44.7001 -15.7409 21.6159 11.7202 -0.0000 -0.0000
 1.5030 34.2935 -4.5227 -5.5788 -26.4297 -46.7920 -9.9498 23.0850 30.8800 11.2822 0.6356 21.0984 9.7066 30.7742 35.2955 -87.1068 -17.7163 -12.4053 -14.0363 0.0000 14.9297 1.4243 -6.8989 11.6948 33.1476 -0.0000 26.2537 -31.6640 8.0423 -27.8895 -84.8787 -37.3806 14.1578 59.4217 0.0000 -44.3449 -0.5560 0.9850 29.4426 32.8623 0.0000 -24.3270 -1.0247 -3.6299 40.0867 23.0037 0.0000 0.0000 -13.7564 37.1764 -2.3009 -11.8803 -0.0000 0.0000 -115.9123 19.4708 -55.0963 -11.5145 -0.0000 0.0000 44.6783 -15.7947 21.6601 11.8888 0.0000 0.0000
 1.5075 34.2804 -4.5220 -5.5911 -26.3721 -46.8055 -9.9298 23.0302 30.9059 11.3940 0.6399 21.0425 9.7270 30.8032 35.2808 -87.1353 -17.8388 -12.4252 -13.7732 0.0000 14.8109 1.4432 -6.9407 11.7763 33.1476 -0.0000 26.2537 -31.6366 8.0775 -27.9154 -84.7890 -37.3895 14.2058 59.4342 0.0000 -44.4814 -0.5793 1.0308 29.3386 32.8623 0.0000 -24.3270 -1.1459 -3.5319 40.1093 23.0915 0.0000 -0.0000 -13.9054 37.0392 -2.1893 -11.4804 -0.0000 -0.0000 -115.9408 19.4095 -55.1084 -11.5872 0.0000 0.0000 44.7016 -15.8287 21.7185 11.8092 -0.0000 0.0000
 1.5124 34.2674 -4.5241 -5.5944 -26.3055 -46.8420 -9.9106 22.9697 30.9561 11.4817 0.6232 20.9984 9.7168 30.8233 35.2969 -87.2065 -17.9454 -12.4567 -13.5499 0.0000 14.7789 1.4872 -6.9994 12.0275 33.1476 -0.0000 26.2537 -31.5906 8.1064 -27.9298 -84.8099 -37.3892 14.2111 59.4293 0.0000 -44.5171 -0.5554 0.9875 29.3546 32.8623 0.0000 -24.3270 -1.3291 -3.4154 40.1694 23.2203 -0.0000 0.0000 -14.0257 36.8820 -2.2050 -11.3152 -0.0000 0.0000 -115.9501 19.3313 -55.1349 -11.6388 -0.0000 0.0000 44.7439 -15.8548 21.7700 11.7711 -0.0000 -0.0000
 1.5165 34.2569 -4.5320 -5.5961 -26.2540 -46.9156 -9.9164 22.9440 31.0397 11.5348 0.5529 20.9964 9.7182 30.8532 35.2973 -87.3637 -18.0611 -12.4884 -13.4201 0.0000 14.7139 1.4827 -7.0212 11.9556 33.1476 -0.0000 26.2537 -31.5866 8.1092 -27.9408 -84.8525 -37.3901 14.2314 59.3720 0.0000 -44.5226 -0.5674 1.0096 29.3373 32.8623 0.0000 -24.3270 -1.5566 -3.2846 40.2789 23.3763 -0.0000 0.0000 -14.1311 36.7108 -2.2358 -11.3607 -0.0000 -0.0000 -115.9509 19.2113 -55.1520 -11.7159 -0.0000 0.0000 44.8604 -15.9445 21.9298 11.8656 -0.0000 0.0000
 1.5222 34.2464 -4.5420 -5.5765 -26.1705 -46.9574 -9.8836 22.9029 31.0795 11.5443 0.4887 21.0197 9.6694 30.8998 35.2920 -87.5185 -18.2418 -12.5328 -13.3205 0.0000 14.8093 1.4825 -7.0523 11.9033 33.1476 -0.0000 26.2537 -31.6307 8.1313 -27.9214 -84.8911 -37.3769 14.2233 59.3027 0.0000 -44.5452 -0.5630 1.0011 29.3528 32.8623 0.0000 -24.3270 -1.7809 -3.2121 40.3670 23.5527 -0.0000 0.0000 -14.2149 36.5261 -2.3046 -11.3677 -0.0000 0.0000 -115.9341 19.1372 -55.1890 -11.7410 -0.0000 0.0000 44.9260 -15.9409 22.0335 12.0187 -0.0000 -0.0000
 1.5276 34.2370 -4.5521 -5.5596 -26.0753 -47.0077 -9.8441 22.8799 31.1215 11.5101 0.4185 21.0777 9.6142 30.8909 35.3325 -87.5645 -18.3778 -12.4993 -13.2897 0.0000 14.8433 1.5361 -7.1308 12.1897 33.1476 -0.0000 26.2537 -31.6414 8.1341 -27.8745 -85.0571 -37.3337 14.1526 59.2301 0.0000 -44.4653 -0.5323 0.9435 29.4328 32.8623 0.0000 -24.3270 -2.0126 -3.1531 40.4669 23.7641 0.0000 0.0000 -14.2847 36.3451 -2.4472 -11.4261 0.0000 0.0000 -115.9070 19.0705 -55.2325 -11.7146 0.0000 -0.0000 44.9207 -15.9424 22.1477 12.2870 0.0000 0.0000
 1.5310 34.2287 -4.5644 -5.5445 -25.9710 -47.0442 -9.7651 22.8488 31.1267 11.4374 0.3632 21.1491 9.5943 30.9294 35.3487 -87.7091 -18.4986 -12.4436 -13.3658 0.0000 14.9519 1.5433 -7.1327 12.2425 33.1476 -0.0000 26.2537 -31.6170 8.1263 -27.8658 -85.1121 -37.3192 14.1263 59.1176 0.0000 -44.5246 -0.5330 0.9419 29.5073 32.8623 0.0000 -24.3270 -2.2382 -3.1013 40.5622 23.9737 -0.0000 -0.0000 -14.3400 36.1572 -2.6480 -11.4271 0.0000 -0.0000 -115.9075 19.0189 -55.2533 -11.6534 -0.0000 -0.0000 44.9130 -15.9063 22.1786 12.3900 -0.0000 -0.0000
 1.5361 34.2223 -4.5801 -5.4946 -25.8656 -47.0497 -9.7030 22.8136 31.1070 11.3688 0.3048 21.2368 9.5311 30.9136 35.3893 -87.7411 -18.6473 -12.3549 -13.4658 0.0000 14.9821 1.5770 -7.1874 12.4096 33.1476 -0.0000 26.2537 -31.5659 8.1039 -27.8539 -85.1287 -37.2892 14.1004 59.0187 0.0000 -44.7255 -0.5072 0.8926 29.6064 32.8623 0.0000 -24.3270 -2.4712 -3.0983 40.6349 24.1728 0.0000 -0.0000 -14.3819 36.0243 -2.9002 -11.3537 -0.0000 -0.0000 -115.8971 18.9983 -55.2811 -11.6018 -0.0000 0.0000 44.9075 -15.9429 22.2412 12.3762 -0.0000 -0.0000
 1.5407 34.2162 -4.5995 -5.4222 -25.7655 -47.0326 -9.6514 22.7896 31.0767 11.2787 0.2352 21.2860 9.5000 30.9017 35.3934 -87.7768 -18.8431 -12.2328 -13.5454 0.0000 14.9119 1.5865 -7.2591 12.3631 33.1476 -0.0000 26.2537 -31.5250 8.0404 -27.9324 -84.8848 -37.2928 14.2173 58.8669 0.0000 -45.1505 -0.5960 1.0565 29.4312 32.8623 0.0000 -24.3270 -2.6667 -3.1320 40.6942 24.3202 0.0000 0.0000 -14.4256 35.8943 -3.1576 -11.3629 0.0000 -0.0000 -115.9147 18.9951 -55.3048 -11.5524 0.0000 -0.0000 44.9423 -15.9510 22.3401 12.3177 0.0000 -0.0000
 1.5466 34.2123 -4.6219 -5.3574 -25.6885 -47.0255 -9.6041 22.8025 31.0422 11.1559 0.1374 21.3750 9.4469 30.9309 35.3973 -87.7418 -19.1031 -12.1251 -13.6202 0.0000 14.8950 1.6455 -7.3230 12.7008 33.1476 -0.0000 26.2537 -31.4899 8.0101 -27.9404 -84.9085 -37.2813 14.1593 58.7568 0.0000 -45.2622 -0.6272 1.1124 29.4170 32.8623 0.0000 -24.3270 -2.8547 -3.1391 40.7515 24.4194 -0.0000 0.0000 -14.4848 35.8183 -3.3558 -11.2739 -0.0000 0.0000 -115.9338 18.9726 -55.3027 -11.5349 0.0000 0.0000 44.9793 -15.9987 22.4261 12.3680 -0.0000 -0.0000
 1.5523 34.2102 -4.6432 -5.3119 -25.6206 -47.0133 -9.5612 22.8412 31.0043 11.0708 0.0109 21.4383 9.4250 30.9391 35.3865 -87.7958 -19.3241 -12.0418 -13.7624 0.0000 14.9224 1.7051 -7.3714 13.0628 33.1476 -0.0000 26.2537 -31.4605 7.9975 -27.9350 -84.9449 -37.2724 14.0897 58.7318 0.0000 -45.3744 -0.6213 1.1049 29.3511 32.8623 0.0000 -24.3270 -3.0142 -3.0864 40.7980 24.4354 -0.0000 0.0000 -14.5340 35.7406 -3.5799 -11.1733 -0.0000 -0.0000 -115.9647 18.9411 -55.2670 -11.5631 0.0000 -0.0000 45.0935 -16.0751 22.6514 12.7879 -0.0000 0.0000
 1.5565 34.2098 -4.6605 -5.2514 -25.5290 -46.9907 -9.5272 22.8572 30.9609 11.0122 -0.1203 21.4975 9.4200 30.9603 35.3695 -87.7624 -19.6141 -11.9472 -13.8292 0.0000 14.9143 1.7982 -7.5180 13.4933 33.1476 -0.0000 26.2537 -31.4309 7.9704 -27.9322 -84.9917 -37.2710 14.0198 58.7132 0.0000 -45.3428 -0.6269 1.1143 29.3655 32.8623 0.0000 -24.3270 -3.0524 -3.1180 40.8144 24.3782 -0.0000 -0.0000 -14.6037 35.7990 -3.7397 -10.9984 0.0000 -0.0000 -115.9284 18.9465 -55.2808 -11.6065 -0.0000 0.0000 45.1787 -16.0871 22.7086 12.8238 -0.0000 0.0000
 1.5621 34.2114 -4.6801 -5.1859 -25.4454 -46.9557 -9.4834 22.8716 30.9064 10.9485 -0.2491 21.5358 9.3965 31.0086 35.3515 -87.7826 -19.8728 -11.9144 -13.9421 0.0000 14.9264 1.8931 -7.7059 13.8470 33.1476 -0.0000 26.2537 -31.4045 7.9664 -27.9180 -85.0961 -37.2761 13.9241 58.7217 0.0000 -45.3174 -0.5829 1.0288 29.5374 32.8623 0.0000 -24.3270 -3.3217 -2.9208 40.8742 24.3354 0.0000 -0.0000 -14.5772 35.5501 -4.0227 -10.9035 0.0000 -0.0000 -115.9028 18.9568 -55.2853 -11.6431 -0.0000 0.0000 45.2024 -16.0168 22.7555 12.8436 0.0000 -0.0000
 1.5678 34.2154 -4.7005 -5.1267 -25.4105 -46.9371 -9.4977 22.9075 30.8853 10.9344 -0.2846 21.5244 9.4142 31.0700 35.3303 -87.9502 -20.0671 -11.9541 -14.1037 0.0000 15.0492 1.9567 -7.7182 14.2727 33.1476 -0.0000 26.2537 -31.4130 8.0246 -27.8573 -85.2541 -37.2587 13.7830 58.7500 0.0000 -45.2973 -0.5474 0.9673 29.5082 32.8623 0.0000 -24.3270 -3.5592 -2.7392 40.9558 24.2851 0.0000 -0.0000 -14.5368 35.3060 -4.3627 -10.7857 -0.0000 0.0000 -115.9256 18.9272 -55.2555 -11.6862 0.0000 -0.0000 45.1882 -15.9352 22.8815 12.8333 -0.0000 -0.0000
 1.5735 34.2207 -4.7207 -5.0593 -25.3469 -46.9056 -9.4815 22.9400 30.8547 10.8926 -0.5136 21.4908 9.4323 31.1531 35.2742 -88.0023 -20.3459 -11.9709 -14.1572 0.0000 15.0867 2.0963 -7.9690 14.7901 33.1476 -0.0000 26.2537 -31.4475 8.0187 -27.8730 -85.2618 -37.2722 13.7527 58.7199 0.0000 -45.2440 -0.5640 0.9909 29.6489 32.8623 0.0000 -24.3270 -3.7158 -2.6461 41.0135 24.2215 0.0000 0.0000 -14.4826 35.1363 -4.7158 -10.5870 0.0000 0.0000 -115.9046 18.9287 -55.2628 -11.7104 -0.0000 0.0000 45.0638 -15.8203 22.9543 12.8490 0.0000 -0.0000
